<svg width="64" height="64" viewBox="0 0 64 64" fill="none" xmlns="http://www.w3.org/2000/svg">
<path d="M12.8 12.6592C12.8 9.15519 15.664 6.18879 19.296 6.41279C33.5264 7.28959 46.0064 12.0768 55.7824 21.4112C58.5568 24.0576 58.0096 28.3808 55.1328 30.5888L54.3521 31.1904L53.0816 29.7792L53.0592 29.7568C43.664 20.1088 30.048 14.4448 15.5872 14.4448H12.8V12.6592ZM12.8 17.6416V52.8C12.8 56.7424 17.2992 59.0016 20.464 56.6432L25.6096 52.8096V52.816C25.6096 53.6647 25.9468 54.4786 26.5469 55.0787C27.147 55.6788 27.961 56.016 28.8096 56.016C29.6583 56.016 30.4723 55.6788 31.0724 55.0787C31.6725 54.4786 32.0096 53.6647 32.0096 52.816V46.4096C32.0129 46.0038 32.1702 45.6145 32.4496 45.3203C32.7291 45.0262 33.1099 44.8492 33.515 44.8252C33.92 44.8012 34.3191 44.932 34.6313 45.1911C34.9436 45.4502 35.1457 45.8183 35.1968 46.2208V48.0128C35.1968 48.8615 35.534 49.6754 36.1341 50.2755C36.7342 50.8757 37.5482 51.2128 38.3968 51.2128C39.2455 51.2128 40.0595 50.8757 40.6596 50.2755C41.2597 49.6754 41.5968 48.8615 41.5968 48.0128V40.8512C44.2368 38.9152 48.272 35.8464 51.8048 33.1456L50.7456 31.9648C41.9808 22.9792 29.216 17.6416 15.584 17.6416H12.8ZM26.3936 26.416C26.3934 26.7301 26.3314 27.0411 26.211 27.3312C26.0906 27.6214 25.9142 27.885 25.6919 28.1069C25.4696 28.3289 25.2058 28.5049 24.9155 28.6249C24.6253 28.7449 24.3142 28.8066 24 28.8064C23.6859 28.8062 23.3749 28.7441 23.0848 28.6237C22.7947 28.5033 22.5311 28.3269 22.3091 28.1047C22.0871 27.8824 21.9111 27.6186 21.7911 27.3283C21.6711 27.038 21.6094 26.7269 21.6096 26.4128C21.6096 25.7784 21.8617 25.17 22.3102 24.7214C22.7588 24.2728 23.3673 24.0208 24.0016 24.0208C24.636 24.0208 25.2445 24.2728 25.693 24.7214C26.1416 25.17 26.3936 25.7784 26.3936 26.4128M35.9136 32.8128C35.9136 33.4472 35.6616 34.0556 35.213 34.5042C34.7645 34.9528 34.156 35.2048 33.5216 35.2048C32.8873 35.2048 32.2788 34.9528 31.8302 34.5042C31.3817 34.0556 31.1296 33.4472 31.1296 32.8128C31.1296 32.1784 31.3817 31.57 31.8302 31.1214C32.2788 30.6728 32.8873 30.4208 33.5216 30.4208C34.156 30.4208 34.7645 30.6728 35.213 31.1214C35.6616 31.57 35.9136 32.1784 35.9136 32.8128ZM26.4192 40.8192C26.4192 41.457 26.1659 42.0687 25.7149 42.5196C25.2639 42.9706 24.6522 43.224 24.0144 43.224C23.3767 43.224 22.765 42.9706 22.314 42.5196C21.863 42.0687 21.6096 41.457 21.6096 40.8192C21.6096 40.1814 21.863 39.5697 22.314 39.1187C22.765 38.6678 23.3767 38.4144 24.0144 38.4144C24.6522 38.4144 25.2639 38.6678 25.7149 39.1187C26.1659 39.5697 26.4192 40.1814 26.4192 40.8192Z" fill="#EF4444"/>
</svg>
