<svg width="64" height="64" viewBox="0 0 64 64" fill="none" xmlns="http://www.w3.org/2000/svg">
<path fill-rule="evenodd" clip-rule="evenodd" d="M14.38 25.9761H49.3C48.212 18.4561 41.056 12.3761 32 12.3081V16.0001H28V12.6801C20.74 14.1081 15.32 19.5041 14.38 25.9761ZM32 20.0001V16.0001H36V20.0001H32ZM32 20.0001H28V24.0001H32V20.0001ZM53.336 25.9761C52.228 15.9001 42.856 8.30811 31.84 8.30811C20.824 8.30811 11.452 15.9001 10.344 25.9761H5.83997V27.9761C5.84038 32.692 7.11948 37.3195 9.5411 41.3661C11.9627 45.4127 15.4362 48.7269 19.592 50.9561V55.7601H44.22V50.9561C48.3757 48.7269 51.8492 45.4127 54.2708 41.3661C56.6925 37.3195 57.9715 32.692 57.972 27.9761V25.9761H53.336ZM26 20.0001H22V16.0001H26V20.0001ZM42 20.0001H38V16.0001H42V20.0001Z" fill="#EF4444"/>
</svg>
