<svg width="64" height="64" viewBox="0 0 64 64" fill="none" xmlns="http://www.w3.org/2000/svg">
<path d="M58.6667 8.00016L26.6667 11.7602V16.0002H58.6667V18.6668H26.6667V32.0002H58.6667C58.6667 36.8268 57.1467 41.2268 54.1867 45.2002C51.2267 49.1735 47.3867 52.0802 42.6667 54.0002V58.6668H21.3334V54.0002C16.64 52.0802 12.7734 49.1468 9.81337 45.2002C6.85337 41.2535 5.33337 36.8268 5.33337 32.0002H13.3334V10.6668L58.6667 5.3335V8.00016ZM16 13.0135V16.0002H18.6667V12.7468L16 13.0135ZM16 18.6668V32.0002H18.6667V18.6668H16ZM24 32.0002V18.6668H21.3334V32.0002H24ZM24 16.0002V12.1335L21.3334 12.3735V16.0002H24Z" fill="#EF4444"/>
</svg>
